<svg width="257" height="58" viewBox="0 0 257 58" fill="none" xmlns="http://www.w3.org/2000/svg">
<path d="M52.4836 0H14.0316C3.726 0 0 3.10231 0 12.3706V45.7751C0 54.7537 3.726 58 14.0316 58C14.0316 58 42.0915 58 52.4836 58C62.8756 58 67 54.7537 67 45.7751C67 36.7964 67 12.3706 67 12.3706C67 3.10231 63.0108 0 52.4836 0ZM38.9642 16.7125H43.6839L28.4812 41.2875H23.0212L38.9642 16.7125ZM44.9649 20.6502L44.971 16.7403L60.0646 27.0403C60.043 28.2563 60.0862 29.6577 60.0646 30.8737L44.971 41.1738L44.9832 37.2283L57.3717 28.974L44.9649 20.6502ZM9.6283 28.974L22.0168 37.2283L22.029 41.1738L6.9354 30.8737C6.9138 29.6577 6.957 28.2563 6.9354 27.0403L22.029 16.7403L22.0351 20.6502L9.6283 28.974Z" fill="white"/>
<path d="M75.4406 35.1664C75.4406 32.9178 75.6951 30.8078 76.2043 28.8366C76.7134 26.8702 77.6112 25.1491 78.8974 23.6731C80.1837 22.2021 81.9008 21.0455 84.0493 20.2036C86.1978 19.3566 88.911 18.9331 92.1891 18.9331H93.8304C95.9387 18.9331 97.9974 19.0743 100.007 19.3566C102.017 19.6389 103.978 20.0401 105.889 20.5602V30.2333C103.701 29.5399 101.515 29.052 99.3306 28.7697C97.1466 28.4923 95.2353 28.3536 93.5959 28.3536C91.4072 28.3536 89.719 28.5592 88.5312 28.9703C87.3387 29.3814 86.4698 29.9435 85.9251 30.6568C85.3758 31.37 85.0542 32.2244 84.9604 33.2199C84.8619 34.2155 84.813 35.2977 84.813 36.4666C84.813 37.6354 84.8619 38.7177 84.9604 39.7132C85.0542 40.7088 85.3758 41.5631 85.9251 42.2764C86.4698 42.9946 87.3387 43.5592 88.5312 43.9703C89.719 44.3814 91.4072 44.5869 93.5959 44.5869C95.2353 44.5869 97.1466 44.4458 99.3306 44.1634C101.515 43.8811 103.701 43.3932 105.889 42.6998V52.373C103.978 52.893 102.017 53.2942 100.007 53.5765C97.9974 53.8588 95.9387 54 93.8304 54H92.1891C88.911 54 86.1978 53.5765 84.0493 52.7296C81.9008 51.8876 80.1837 50.7311 78.8974 49.26C77.6112 47.789 76.7134 46.0678 76.2043 44.0966C75.6951 42.1253 75.4406 40.0154 75.4406 37.7667V35.1664ZM115.255 35.1664C115.255 32.9178 115.51 30.8078 116.019 28.8366C116.523 26.8702 117.421 25.1491 118.712 23.6731C119.998 22.2021 121.715 21.0455 123.864 20.2036C126.012 19.3566 128.726 18.9331 132.004 18.9331H133.638C136.921 18.9331 139.634 19.3566 141.778 20.2036C143.927 21.0455 145.644 22.2021 146.93 23.6731C148.221 25.1491 149.119 26.8702 149.623 28.8366C150.132 30.8078 150.387 32.9178 150.387 35.1664V37.7667C150.387 40.0154 150.132 42.1253 149.623 44.0966C149.119 46.0678 148.221 47.789 146.93 49.26C145.644 50.7311 143.927 51.8876 141.778 52.7296C139.634 53.5765 136.921 54 133.638 54H132.004C128.726 54 126.012 53.5765 123.864 52.7296C121.715 51.8876 119.998 50.7311 118.712 49.26C117.421 47.789 116.523 46.0678 116.019 44.0966C115.51 42.1253 115.255 40.0154 115.255 37.7667V35.1664ZM124.628 36.4666C124.628 37.5067 124.666 38.5245 124.741 39.5201C124.822 40.5156 125.123 41.3799 125.646 42.1129C126.173 42.8509 126.984 43.4478 128.078 43.9034C129.172 44.3591 130.753 44.5869 132.821 44.5869C134.853 44.5869 136.425 44.3591 137.537 43.9034C138.649 43.4478 139.469 42.8509 139.996 42.1129C140.523 41.3799 140.825 40.5156 140.9 39.5201C140.981 38.5245 141.021 37.5067 141.021 36.4666C141.021 35.4264 140.981 34.4086 140.9 33.4131C140.825 32.4175 140.523 31.5533 139.996 30.8202C139.469 30.0822 138.649 29.4854 137.537 29.0297C136.425 28.579 134.853 28.3536 132.821 28.3536C130.753 28.3536 129.172 28.579 128.078 29.0297C126.984 29.4854 126.173 30.0822 125.646 30.8202C125.123 31.5533 124.822 32.4175 124.741 33.4131C124.666 34.4086 124.628 35.4264 124.628 36.4666ZM163.27 4L170.291 8.5468V52.6999H160.925V4H163.27ZM216.081 52.6999H213.736L210.574 50.6865C208.703 51.8108 206.713 52.6456 204.605 53.1902C202.497 53.7303 200.155 54 197.577 54C194.299 54 191.586 53.5765 189.438 52.7296C187.289 51.8876 185.572 50.7311 184.286 49.26C182.999 47.789 182.102 46.0678 181.593 44.0966C181.083 42.1253 180.829 40.0154 180.829 37.7667V35.1664C180.829 32.9178 181.083 30.8078 181.593 28.8366C182.102 26.8702 182.999 25.1491 184.286 23.6731C185.572 22.2021 187.289 21.0455 189.438 20.2036C191.586 19.3566 194.299 18.9331 197.577 18.9331C199.292 18.9331 200.902 19.0644 202.408 19.3269C203.908 19.5845 205.342 19.951 206.709 20.4264V4H209.053L216.081 8.5468V52.6999ZM198.107 44.5869C201.188 44.5869 204.056 44.1313 206.709 43.2199V29.7801C205.382 29.3046 204.018 28.948 202.615 28.7103C201.208 28.4725 199.706 28.3536 198.107 28.3536C196.115 28.3536 194.591 28.579 193.538 29.0297C192.484 29.4854 191.702 30.0822 191.193 30.8202C190.688 31.5533 190.396 32.4175 190.315 33.4131C190.24 34.4086 190.201 35.4264 190.201 36.4666C190.201 37.5067 190.24 38.5245 190.315 39.5201C190.396 40.5156 190.688 41.3799 191.193 42.1129C191.702 42.8509 192.484 43.4478 193.538 43.9034C194.591 44.3591 196.115 44.5869 198.107 44.5869ZM234.699 36.4666L224.275 22.8336V20.2333H233.178L240.145 29.3938L247.166 20.2333H256.01V22.8336L245.585 36.4666L256.01 50.0996V52.6999H247.166L240.145 43.5468L233.178 52.6999H224.275V50.0996L234.699 36.4666Z" fill="white"/>
</svg>
