<svg width="259" height="61" viewBox="0 0 259 61" fill="none" xmlns="http://www.w3.org/2000/svg">
<path d="M52.4836 3H14.0316C3.726 3 0 6.10231 0 15.3706V48.7751C0 57.7537 3.726 61 14.0316 61C14.0316 61 42.0915 61 52.4836 61C62.8756 61 67 57.7537 67 48.7751C67 39.7964 67 15.3706 67 15.3706C67 6.10231 63.0108 3 52.4836 3ZM38.9642 19.7125H43.6839L28.4812 44.2875H23.0212L38.9642 19.7125ZM44.9649 23.6502L44.971 19.7403L60.0646 30.0403C60.043 31.2563 60.0862 32.6577 60.0646 33.8737L44.971 44.1738L44.9832 40.2283L57.3717 31.974L44.9649 23.6502ZM9.6283 31.974L22.0168 40.2283L22.029 44.1738L6.9354 33.8737C6.9138 32.6577 6.957 31.2563 6.9354 30.0403L22.029 19.7403L22.0351 23.6502L9.6283 31.974Z" fill="white"/>
<path d="M77.4406 31.1664C77.4406 28.9178 77.6951 26.8078 78.2043 24.8366C78.7134 22.8702 79.6112 21.1491 80.8974 19.6731C82.1837 18.2021 83.9008 17.0455 86.0493 16.2036C88.1978 15.3566 90.911 14.9331 94.1891 14.9331H95.8304C97.9387 14.9331 99.9974 15.0743 102.007 15.3566C104.017 15.6389 105.978 16.0401 107.889 16.5602V26.2333C105.701 25.5399 103.515 25.052 101.331 24.7697C99.1466 24.4923 97.2353 24.3536 95.5959 24.3536C93.4072 24.3536 91.719 24.5592 90.5312 24.9703C89.3387 25.3814 88.4698 25.9435 87.9251 26.6568C87.3758 27.37 87.0542 28.2244 86.9604 29.2199C86.8619 30.2155 86.813 31.2977 86.813 32.4666C86.813 33.6354 86.8619 34.7177 86.9604 35.7132C87.0542 36.7088 87.3758 37.5631 87.9251 38.2764C88.4698 38.9946 89.3387 39.5592 90.5312 39.9703C91.719 40.3814 93.4072 40.5869 95.5959 40.5869C97.2353 40.5869 99.1466 40.4458 101.331 40.1634C103.515 39.8811 105.701 39.3932 107.889 38.6998V48.373C105.978 48.893 104.017 49.2942 102.007 49.5765C99.9974 49.8588 97.9387 50 95.8304 50H94.1891C90.911 50 88.1978 49.5765 86.0493 48.7296C83.9008 47.8876 82.1837 46.7311 80.8974 45.26C79.6112 43.789 78.7134 42.0678 78.2043 40.0966C77.6951 38.1253 77.4406 36.0154 77.4406 33.7667V31.1664ZM117.255 31.1664C117.255 28.9178 117.51 26.8078 118.019 24.8366C118.523 22.8702 119.421 21.1491 120.712 19.6731C121.998 18.2021 123.715 17.0455 125.864 16.2036C128.012 15.3566 130.726 14.9331 134.004 14.9331H135.638C138.921 14.9331 141.634 15.3566 143.778 16.2036C145.927 17.0455 147.644 18.2021 148.93 19.6731C150.221 21.1491 151.119 22.8702 151.623 24.8366C152.132 26.8078 152.387 28.9178 152.387 31.1664V33.7667C152.387 36.0154 152.132 38.1253 151.623 40.0966C151.119 42.0678 150.221 43.789 148.93 45.26C147.644 46.7311 145.927 47.8876 143.778 48.7296C141.634 49.5765 138.921 50 135.638 50H134.004C130.726 50 128.012 49.5765 125.864 48.7296C123.715 47.8876 121.998 46.7311 120.712 45.26C119.421 43.789 118.523 42.0678 118.019 40.0966C117.51 38.1253 117.255 36.0154 117.255 33.7667V31.1664ZM126.628 32.4666C126.628 33.5067 126.666 34.5245 126.741 35.5201C126.822 36.5156 127.123 37.3799 127.646 38.1129C128.173 38.8509 128.984 39.4478 130.078 39.9034C131.172 40.3591 132.753 40.5869 134.821 40.5869C136.853 40.5869 138.425 40.3591 139.537 39.9034C140.649 39.4478 141.469 38.8509 141.996 38.1129C142.523 37.3799 142.825 36.5156 142.9 35.5201C142.981 34.5245 143.021 33.5067 143.021 32.4666C143.021 31.4264 142.981 30.4086 142.9 29.4131C142.825 28.4175 142.523 27.5533 141.996 26.8202C141.469 26.0822 140.649 25.4854 139.537 25.0297C138.425 24.579 136.853 24.3536 134.821 24.3536C132.753 24.3536 131.172 24.579 130.078 25.0297C128.984 25.4854 128.173 26.0822 127.646 26.8202C127.123 27.5533 126.822 28.4175 126.741 29.4131C126.666 30.4086 126.628 31.4264 126.628 32.4666ZM165.27 0L172.291 4.5468V48.6999H162.925V0H165.27ZM218.081 48.6999H215.736L212.574 46.6865C210.703 47.8108 208.713 48.6456 206.605 49.1902C204.497 49.7303 202.155 50 199.577 50C196.299 50 193.586 49.5765 191.438 48.7296C189.289 47.8876 187.572 46.7311 186.286 45.26C184.999 43.789 184.102 42.0678 183.593 40.0966C183.083 38.1253 182.829 36.0154 182.829 33.7667V31.1664C182.829 28.9178 183.083 26.8078 183.593 24.8366C184.102 22.8702 184.999 21.1491 186.286 19.6731C187.572 18.2021 189.289 17.0455 191.438 16.2036C193.586 15.3566 196.299 14.9331 199.577 14.9331C201.292 14.9331 202.902 15.0644 204.408 15.3269C205.908 15.5845 207.342 15.951 208.709 16.4264V0H211.053L218.081 4.5468V48.6999ZM200.107 40.5869C203.188 40.5869 206.056 40.1313 208.709 39.2199V25.7801C207.382 25.3046 206.018 24.948 204.615 24.7103C203.208 24.4725 201.706 24.3536 200.107 24.3536C198.115 24.3536 196.591 24.579 195.538 25.0297C194.484 25.4854 193.702 26.0822 193.193 26.8202C192.688 27.5533 192.396 28.4175 192.315 29.4131C192.24 30.4086 192.201 31.4264 192.201 32.4666C192.201 33.5067 192.24 34.5245 192.315 35.5201C192.396 36.5156 192.688 37.3799 193.193 38.1129C193.702 38.8509 194.484 39.4478 195.538 39.9034C196.591 40.3591 198.115 40.5869 200.107 40.5869ZM236.699 32.4666L226.275 18.8336V16.2333H235.178L242.145 25.3938L249.166 16.2333H258.01V18.8336L247.585 32.4666L258.01 46.0996V48.6999H249.166L242.145 39.5468L235.178 48.6999H226.275V46.0996L236.699 32.4666Z" fill="white"/>
</svg>
