<svg width="1348" height="939" viewBox="0 0 1348 939" fill="none" xmlns="http://www.w3.org/2000/svg">
<path fill-rule="evenodd" clip-rule="evenodd" d="M1204.04 72.7378C1274.74 112.222 1342.93 160.531 1372.02 237.967C1405.07 325.981 1426.93 435.329 1374.27 526.003C1322.05 615.934 1208.08 639.609 1114.87 680.766C1037.72 714.83 958.111 756.441 881.203 743.708C808.307 731.64 774.626 657.286 717.306 614.948C652.384 566.996 542.38 561.586 523.558 479.545C504.815 397.851 592.822 318.253 630.134 234.986C669.657 146.786 663.771 23.836 748.409 -22.2346C834.19 -68.9274 915.972 13.792 1003.12 31.9582C1071.66 46.2439 1144.5 39.4912 1204.04 72.7378Z" fill="url(#paint0_linear)" fill-opacity="0.7"/>
<path fill-rule="evenodd" clip-rule="evenodd" d="M902.97 -4.2928C974.395 -52.5929 1052.99 -94.3716 1140.47 -85.4748C1239.89 -75.3628 1354.19 -44.633 1415 47.7836C1475.3 139.443 1443.07 258.341 1437.4 365.834C1432.7 454.799 1433.99 549.639 1384.99 616.381C1338.54 679.641 1251.78 676.54 1184.08 710.843C1107.39 749.695 1049.45 851.175 962.527 830.411C875.974 809.734 842.652 689.096 781.514 614.673C716.753 535.84 597.205 483.613 594.096 381.922C590.945 278.856 708.732 240.403 767.813 166.528C814.274 108.434 842.83 36.3765 902.97 -4.2928Z" fill="url(#paint1_linear)"/>
<defs>
<linearGradient id="paint0_linear" x1="1223.36" y1="69.0598" x2="695.636" y2="656.94" gradientUnits="userSpaceOnUse">
<stop stop-color="#6D678E"/>
<stop offset="1" stop-color="#F6B5CC"/>
</linearGradient>
<linearGradient id="paint1_linear" x1="908.756" y1="-24.2978" x2="1213.54" y2="751.073" gradientUnits="userSpaceOnUse">
<stop stop-color="#6D678E"/>
<stop offset="1" stop-color="#F6B5CC"/>
</linearGradient>
</defs>
</svg>
