<svg width="201" height="202" viewBox="0 0 201 202" fill="none" xmlns="http://www.w3.org/2000/svg">
<path fill-rule="evenodd" clip-rule="evenodd" d="M113.494 31.5501C126.117 38.3067 128.885 54.5351 138.397 65.2309C147.775 75.7748 165.095 79.777 168.548 93.4533C172.066 107.386 162.816 121.027 155.627 133.468C148.455 145.88 140.499 158.596 127.458 164.564C114.362 170.556 99.6899 166.567 85.3141 165.644C68.014 164.533 46.4595 171.691 35.066 158.632C23.639 145.534 34.0179 125.14 34.8379 107.786C35.5036 93.6968 34.4632 79.9707 39.4067 66.7601C45.1797 51.3328 50.5027 33.2225 65.3873 26.1487C80.3229 19.0505 98.9118 23.7441 113.494 31.5501Z" fill="url(#paint0_linear)" fill-opacity="0.5"/>
<path fill-rule="evenodd" clip-rule="evenodd" d="M146.568 47.319C154.12 59.4815 148.404 74.92 151.294 88.9389C154.143 102.759 167.141 114.885 163.294 128.456C159.374 142.281 144.543 149.469 132.097 156.649C119.68 163.812 106.431 170.846 92.1536 169.494C77.8161 168.136 67.1044 157.344 55.116 149.357C40.6891 139.745 18.4431 135.167 15.1058 118.161C11.7587 101.104 30.9438 88.6325 40.3309 74.0133C47.9523 62.1442 53.9143 49.7369 64.8008 40.7679C77.514 30.294 91.179 17.2715 107.606 18.5877C124.09 19.9083 137.842 33.2675 146.568 47.319Z" fill="url(#paint1_linear)"/>
<path fill-rule="evenodd" clip-rule="evenodd" d="M77 113.5C77 113.102 77.158 112.721 77.4393 112.439C77.7206 112.158 78.1022 112 78.5 112H123.5C123.898 112 124.279 112.158 124.561 112.439C124.842 112.721 125 113.102 125 113.5C125 113.898 124.842 114.279 124.561 114.561C124.279 114.842 123.898 115 123.5 115H78.5C78.1022 115 77.7206 114.842 77.4393 114.561C77.158 114.279 77 113.898 77 113.5ZM86.36 70.525C86.5008 70.3604 86.6757 70.2282 86.8725 70.1375C87.0692 70.0469 87.2833 70 87.5 70H114.5C114.717 70 114.931 70.0469 115.128 70.1375C115.324 70.2282 115.499 70.3604 115.64 70.525L123.917 80.182C124.616 80.9975 125 82.036 125 83.11V83.5H122V83.11C122 82.7525 121.872 82.4067 121.64 82.135L113.81 73H88.19L80.36 82.135C80.1276 82.4067 80 82.7525 80 83.11V83.5H77V83.11C77 82.036 77.3842 80.9975 78.083 80.182L86.363 70.522L86.36 70.525Z" fill="white"/>
<path d="M84.125 87.625C86.405 87.625 88.25 85.777 88.25 83.5H91.25C91.25 84.594 91.6846 85.6432 92.4582 86.4168C93.2318 87.1904 94.281 87.625 95.375 87.625C96.469 87.625 97.5182 87.1904 98.2918 86.4168C99.0654 85.6432 99.5 84.594 99.5 83.5H102.5C102.5 84.594 102.935 85.6432 103.708 86.4168C104.482 87.1904 105.531 87.625 106.625 87.625C107.719 87.625 108.768 87.1904 109.542 86.4168C110.315 85.6432 110.75 84.594 110.75 83.5H113.75C113.75 84.594 114.185 85.6432 114.958 86.4168C115.732 87.1904 116.781 87.625 117.875 87.625C118.969 87.625 120.018 87.1904 120.792 86.4168C121.565 85.6432 122 84.594 122 83.5H125C125 84.9849 124.536 86.4328 123.673 87.6413C122.811 88.8497 121.592 89.7584 120.187 90.2402C118.782 90.7221 117.262 90.7531 115.839 90.3288C114.416 89.9046 113.161 89.0463 112.25 87.874C111.584 88.7313 110.731 89.4249 109.757 89.9018C108.782 90.3786 107.71 90.626 106.625 90.625C105.54 90.6262 104.468 90.3789 103.493 89.9021C102.518 89.4252 101.665 88.7315 101 87.874C100.335 88.7315 99.4817 89.4252 98.5066 89.9021C97.5316 90.3789 96.4604 90.6262 95.375 90.625C94.2896 90.6262 93.2184 90.3789 92.2434 89.9021C91.2683 89.4252 90.4154 88.7315 89.75 87.874C88.8386 89.0463 87.5836 89.9046 86.1606 90.3288C84.7376 90.7531 83.2175 90.7221 81.813 90.2402C80.4084 89.7584 79.1895 88.8497 78.3265 87.6413C77.4636 86.4328 76.9998 84.9849 77 83.5H80C80 85.78 81.848 87.625 84.125 87.625Z" fill="white"/>
<path d="M91.25 83.5C91.25 83.8978 91.092 84.2794 90.8107 84.5607C90.5294 84.842 90.1478 85 89.75 85C89.3522 85 88.9706 84.842 88.6893 84.5607C88.408 84.2794 88.25 83.8978 88.25 83.5C88.25 83.1022 88.408 82.7206 88.6893 82.4393C88.9706 82.158 89.3522 82 89.75 82C90.1478 82 90.5294 82.158 90.8107 82.4393C91.092 82.7206 91.25 83.1022 91.25 83.5ZM102.5 83.5C102.5 83.8978 102.342 84.2794 102.061 84.5607C101.779 84.842 101.398 85 101 85C100.602 85 100.221 84.842 99.9393 84.5607C99.658 84.2794 99.5 83.8978 99.5 83.5C99.5 83.1022 99.658 82.7206 99.9393 82.4393C100.221 82.158 100.602 82 101 82C101.398 82 101.779 82.158 102.061 82.4393C102.342 82.7206 102.5 83.1022 102.5 83.5ZM113.75 83.5C113.75 83.8978 113.592 84.2794 113.311 84.5607C113.029 84.842 112.648 85 112.25 85C111.852 85 111.471 84.842 111.189 84.5607C110.908 84.2794 110.75 83.8978 110.75 83.5C110.75 83.1022 110.908 82.7206 111.189 82.4393C111.471 82.158 111.852 82 112.25 82C112.648 82 113.029 82.158 113.311 82.4393C113.592 82.7206 113.75 83.1022 113.75 83.5Z" fill="white"/>
<path fill-rule="evenodd" clip-rule="evenodd" d="M83 90.538V88H80V89.311C80.873 89.932 81.896 90.361 83 90.538ZM80 92.749C80.933 93.169 81.941 93.445 83 93.562V112H80V92.749ZM119 93.562C120.036 93.449 121.048 93.1757 122 92.752V112H119V93.562ZM122 89.311C121.127 89.932 120.104 90.361 119 90.538V88H122V89.311ZM86 95.5C86 95.1022 86.158 94.7206 86.4393 94.4393C86.7206 94.158 87.1022 94 87.5 94H99.5C99.8978 94 100.279 94.158 100.561 94.4393C100.842 94.7206 101 95.1022 101 95.5V112H98V97H89V112H86V95.5ZM104 95.5C104 95.1022 104.158 94.7206 104.439 94.4393C104.721 94.158 105.102 94 105.5 94H114.5C114.898 94 115.279 94.158 115.561 94.4393C115.842 94.7206 116 95.1022 116 95.5V107.5C116 107.898 115.842 108.279 115.561 108.561C115.279 108.842 114.898 109 114.5 109H105.5C105.102 109 104.721 108.842 104.439 108.561C104.158 108.279 104 107.898 104 107.5V95.5ZM107 97V106H113V97H107Z" fill="white"/>
<defs>
<linearGradient id="paint0_linear" x1="115.835" y1="28.6811" x2="85.3762" y2="173.619" gradientUnits="userSpaceOnUse">
<stop stop-color="#6D678E"/>
<stop offset="1" stop-color="#F6B5CC"/>
</linearGradient>
<linearGradient id="paint1_linear" x1="150.03" y1="46.0049" x2="51.1821" y2="156.295" gradientUnits="userSpaceOnUse">
<stop stop-color="#6D678E"/>
<stop offset="1" stop-color="#F6B5CC"/>
</linearGradient>
</defs>
</svg>
