<svg width="209" height="201" viewBox="0 0 209 201" fill="none" xmlns="http://www.w3.org/2000/svg">
<path fill-rule="evenodd" clip-rule="evenodd" d="M139.132 30.5517C150.725 40.1832 149.46 57.6751 156.75 70.7779C163.937 83.6947 181.206 91.4155 181.324 106.386C181.443 121.637 168.146 133.969 157.337 145.472C146.553 156.948 134.861 168.581 119.54 172.135C104.154 175.703 89.6791 168.537 74.7259 164.63C56.7311 159.929 32.1051 162.981 23.4375 147.028C14.7445 131.028 30.9784 111.884 36.3262 93.9532C40.668 79.3951 43.113 64.8668 51.7483 52.1014C61.8326 37.1941 72.1342 19.3965 89.6899 15.067C107.306 10.7227 125.737 19.4244 139.132 30.5517Z" fill="url(#paint0_linear)" fill-opacity="0.5"/>
<path fill-rule="evenodd" clip-rule="evenodd" d="M174.151 115.767C166.848 127.719 148.806 130.056 137.056 138.955C125.471 147.727 121.325 164.229 106.141 167.27C90.6721 170.369 75.2958 161.253 61.2943 154.133C47.3259 147.029 33.0036 139.169 26.1128 126.572C19.1929 113.922 23.3735 99.9547 24.1404 86.2125C25.0632 69.675 16.6894 48.9061 31.0413 38.2521C45.4353 27.5669 68.3603 37.8938 87.7229 39.0128C103.443 39.9212 118.727 39.1897 133.545 44.1757C150.85 49.9984 171.138 55.4421 179.295 69.8252C187.481 84.2576 182.588 101.96 174.151 115.767Z" fill="url(#paint1_linear)"/>
<path d="M103.172 78.4897C101.947 78.4981 100.732 78.5546 99.4477 78.881C98.0489 79.2411 96.7217 79.8157 95.5185 80.582C93.8285 79.6405 92.1914 78.8663 90.6228 78.6843C88.6747 78.4563 86.8656 78.5797 84.7631 78.6215C82.2701 78.6697 80.6442 79.8769 78.0056 80.8435C75.3693 81.806 71.974 82.7391 67.1821 82.7391L64.9759 82.7391L64.9774 102.877L66.2196 103.465L70.2857 105.363L84.7663 120.662L84.8347 120.727C86.4894 122.279 88.7222 122.664 90.6945 122.557C92.669 122.453 94.5222 121.904 96.0025 121.055C99.261 119.191 108.136 113.339 108.136 113.339L108.343 113.207L108.482 113.077C109.533 112.087 110.06 110.88 110.413 109.612L118.891 105.558L125.234 103.532L126.751 103.072L126.75 82.7391L124.544 82.7391C120.835 82.7632 117.158 82.0964 113.72 80.7766C111.081 79.7995 109.479 78.6048 106.96 78.5546C105.614 78.5295 104.392 78.4814 103.17 78.4897L103.172 78.4897ZM103.238 82.6743C104.231 82.6659 105.378 82.7161 106.826 82.7391C107.057 82.7475 109.177 83.6053 112.134 84.7017C114.634 85.6328 118.106 86.4592 122.338 86.727L122.339 100.065L117.236 101.701L117.099 101.701L116.96 101.764L110.276 104.97C109.921 103.999 109.357 103.108 108.621 102.354L108.482 102.158L99.1044 91.2401L97.7254 89.6039L96.0003 90.9116L90.0725 95.4895C88.0826 96.7971 86.4698 96.4205 84.8328 95.6861C84.3584 95.4727 84.3849 95.4079 84.0054 95.1631L94.0718 87.2501L94.2085 87.1204C97.1977 84.3084 99.0354 83.3354 100.619 82.9358C101.414 82.7308 102.25 82.6827 103.24 82.6743L103.238 82.6743ZM87.8676 82.7391C88.6037 82.7128 89.3408 82.7345 90.0738 82.804C90.6518 82.8689 91.3071 83.3354 91.8675 83.5237C91.6425 83.7204 91.4792 83.8334 91.2454 84.0468L91.1086 84.1786L79.0435 93.6566L77.1816 95.0961L78.8364 96.7302C78.8364 96.7302 80.4316 98.3664 82.9048 99.4774C85.3781 100.588 89.1971 101.218 92.6254 98.9543L92.7643 98.8225L97.0375 95.4895L105.175 104.97L105.243 105.101L105.312 105.164C106.768 106.53 106.735 108.679 105.312 110.071C105.294 110.085 105.33 110.119 105.312 110.133C105.294 110.144 105.003 110.307 104.968 110.332L102.071 106.604L98.4858 109.089L101.314 112.684C100.167 113.42 99.6511 113.805 98.4178 114.581L95.4546 110.788L91.8675 113.274L94.6961 116.868C94.4446 117.015 93.9284 117.343 93.7299 117.458C93.0327 117.858 91.687 118.308 90.489 118.373C89.3616 118.431 88.499 118.184 88.0776 117.85L88.0092 117.785L73.2529 102.289L72.9771 101.961L69.3896 100.262L69.3886 86.727C73.6025 86.4655 77.1015 85.6725 79.5922 84.7666C82.5396 83.6953 84.6443 82.8124 84.9002 82.804L87.8654 82.7391L87.8676 82.7391Z" fill="white"/>
<defs>
<linearGradient id="paint0_linear" x1="142.346" y1="28.039" x2="79.7943" y2="175.948" gradientUnits="userSpaceOnUse">
<stop stop-color="#6D678E"/>
<stop offset="1" stop-color="#F6B5CC"/>
</linearGradient>
<linearGradient id="paint1_linear" x1="177.392" y1="118.063" x2="16.2868" y2="81.5435" gradientUnits="userSpaceOnUse">
<stop stop-color="#6D678E"/>
<stop offset="1" stop-color="#F6B5CC"/>
</linearGradient>
</defs>
</svg>
