<svg width="35" height="35" fill="none" xmlns="http://www.w3.org/2000/svg"><path d="M14.51 20.492c-3.344-3.344-4.1-6.688-4.27-8.028-.047-.37.08-.742.345-1.005l2.707-2.705a1.208 1.208 0 00.17-1.495L9.153.569A1.208 1.208 0 007.588.127L.671 3.386c-.45.221-.716.7-.665 1.2C.37 8.029 1.87 16.493 10.188 24.812c8.318 8.319 16.781 9.82 20.226 10.182.5.05.979-.214 1.2-.665l3.259-6.917a1.208 1.208 0 00-.438-1.563l-6.691-4.307a1.208 1.208 0 00-1.495.169l-2.705 2.706a1.201 1.201 0 01-1.006.345c-1.34-.17-4.684-.925-8.028-4.27z" fill="#693030"/><path d="M24.77 13.858v2.381a.604.604 0 01-.978.475l-6.875-5.402a.604.604 0 010-.95l6.875-5.402a.604.604 0 01.978.475v2.388c0 .33.265.6.596.604 2.61.033 8.35.458 9.478 5.849a.604.604 0 01-.971.583c-.965-.787-2.65-1.605-5.479-1.605h-3.02a.604.604 0 00-.604.604z" fill="#693030"/></svg>