<svg width="40" height="40" fill="none" xmlns="http://www.w3.org/2000/svg"><path d="M20.005 0h-.01C8.967 0 0 8.97 0 20c0 4.375 1.41 8.43 3.808 11.723l-2.493 7.43 7.688-2.458A19.827 19.827 0 0020.005 40C31.032 40 40 31.027 40 20S31.032 0 20.005 0z" fill="#4CAF50"/><path d="M31.262 28.095c-.482 1.363-2.397 2.492-3.925 2.823-1.044.222-2.41.4-7.005-1.505-5.877-2.436-9.662-8.408-9.957-8.796C10.092 20.23 8 17.456 8 14.585s1.457-4.268 2.045-4.868C10.527 9.226 11.325 9 12.09 9c.248 0 .47.012.67.023.588.024.883.06 1.27.987.482 1.162 1.658 4.033 1.798 4.328.142.295.285.695.085 1.082-.188.4-.353.578-.648.917-.295.34-.575.6-.87.965-.27.318-.575.658-.235 1.245.34.575 1.515 2.493 3.245 4.033 2.232 1.988 4.043 2.623 4.69 2.893.483.2 1.058.152 1.41-.223.448-.483 1-1.282 1.563-2.07.4-.565.904-.635 1.434-.435.54.188 3.398 1.6 3.986 1.892.587.296.974.436 1.117.683.14.247.14 1.41-.343 2.775z" fill="#FAFAFA"/></svg>