<svg width="36" height="36" fill="none" xmlns="http://www.w3.org/2000/svg"><path d="M33.188 14.766v-8.93A5.842 5.842 0 0027.352 0a5.843 5.843 0 00-5.836 5.836h2.812a3.027 3.027 0 013.024-3.024 3.027 3.027 0 013.023 3.024v8.93H24.21a1.406 1.406 0 10-2.577 0H0V18c0 7.893 4.887 12.353 9.017 14.188A5.603 5.603 0 007.523 36h2.813a2.816 2.816 0 012.812-2.813h9.704A2.816 2.816 0 0125.664 36h2.813c0-1.47-.568-2.81-1.494-3.812C31.113 30.353 36 25.893 36 18v-3.234h-2.813zm0 3.234c0 4.929-2.275 7.938-4.183 9.595-2.333 2.025-4.926 2.78-6.013 2.78h-9.984c-1.087 0-3.68-.755-6.013-2.78C5.087 25.938 2.812 22.929 2.812 18v-.422h30.375V18z" fill="#fff"/></svg>