<svg width="22" height="22" fill="none" xmlns="http://www.w3.org/2000/svg"><path d="M19.789 15.733a1.283 1.283 0 00-.064-.123c-.328-.59-.954-1.315-1.879-2.174l-.02-.02-.009-.01-.01-.009h-.01c-.42-.4-.685-.669-.796-.806-.204-.263-.25-.528-.138-.797.078-.204.374-.633.885-1.289.269-.347.482-.626.64-.835 1.133-1.508 1.625-2.472 1.474-2.892l-.058-.098c-.04-.059-.141-.113-.305-.162-.164-.05-.374-.057-.63-.025l-2.832.02a.368.368 0 00-.197.005l-.127.03-.05.024-.039.03a.438.438 0 00-.108.103.677.677 0 00-.098.172 16.06 16.06 0 01-1.053 2.213c-.242.406-.465.759-.668 1.057a5.094 5.094 0 01-.512.659c-.138.14-.262.254-.374.339-.111.085-.196.121-.255.108a6.733 6.733 0 01-.168-.04.655.655 0 01-.22-.24 1.077 1.077 0 01-.114-.384 4.184 4.184 0 01-.034-.398 8.24 8.24 0 01.005-.472c.006-.203.01-.341.01-.413 0-.25.004-.52.014-.812l.025-.693c.007-.17.01-.35.01-.54 0-.19-.012-.34-.035-.448a1.525 1.525 0 00-.103-.315.53.53 0 00-.201-.236 1.137 1.137 0 00-.33-.133c-.347-.078-.79-.121-1.328-.128-1.22-.013-2.003.066-2.35.237-.138.072-.262.17-.374.294-.118.145-.134.223-.05.236.394.06.673.2.837.423l.059.118c.046.086.092.236.138.453.045.216.075.455.088.718.033.478.033.888 0 1.229-.033.34-.064.606-.093.797a1.596 1.596 0 01-.251.678.168.168 0 01-.05.05.736.736 0 01-.265.049c-.092 0-.203-.046-.334-.138a2.356 2.356 0 01-.408-.379 5.06 5.06 0 01-.477-.674 11.666 11.666 0 01-.551-1.022l-.157-.286c-.099-.183-.233-.45-.404-.801-.17-.35-.32-.69-.452-1.018a.648.648 0 00-.236-.315l-.05-.03a.674.674 0 00-.157-.083 1.044 1.044 0 00-.226-.064l-2.694.02c-.276 0-.463.062-.561.187l-.04.059A.318.318 0 001 6.896c0 .072.02.16.059.266.393.924.821 1.816 1.283 2.675.463.858.864 1.55 1.205 2.075.341.524.689 1.02 1.043 1.485.354.465.588.764.703.895.115.13.205.23.27.295l.246.236c.157.157.389.345.693.565.305.22.643.436 1.013.65.37.212.802.386 1.294.52.491.135.97.189 1.436.163h1.13c.23-.02.404-.092.522-.216l.039-.05a.667.667 0 00.074-.182 1 1 0 00.034-.27 3.238 3.238 0 01.064-.762 2.01 2.01 0 01.167-.511 1.258 1.258 0 01.38-.433.652.652 0 01.078-.035c.157-.052.342-.001.555.153.213.154.413.344.6.57.187.227.412.48.674.763.262.281.492.491.688.629l.197.118a2.4 2.4 0 00.512.216 1.1 1.1 0 00.55.05l2.518-.04c.249 0 .443-.04.58-.123.138-.082.22-.172.246-.27a.76.76 0 00.005-.335 1.237 1.237 0 00-.07-.26z" fill="#959595"/></svg>