<svg width="22" height="22" fill="none" xmlns="http://www.w3.org/2000/svg"><path d="M11.003 0h-.006C4.932 0 0 4.934 0 11c0 2.406.775 4.636 2.094 6.447l-1.37 4.087 4.227-1.352A10.905 10.905 0 0011.003 22C17.068 22 22 17.065 22 11S17.068 0 11.003 0z" fill="#959595"/><path d="M16.768 15.392c-.265.741-1.316 1.356-2.155 1.535-.573.122-1.322.218-3.844-.819-3.226-1.325-5.304-4.575-5.465-4.786C5.148 11.112 4 9.602 4 8.04c0-1.561.8-2.322 1.122-2.649.265-.268.703-.39 1.123-.39.136 0 .258.007.368.012.322.014.484.033.697.538.264.632.91 2.194.986 2.355.078.16.157.378.047.589-.103.217-.194.314-.356.5-.162.184-.315.326-.477.524-.148.173-.316.358-.13.678.188.313.832 1.356 1.782 2.194 1.225 1.082 2.219 1.427 2.574 1.574.265.11.58.083.774-.12.245-.263.549-.699.857-1.127.22-.308.497-.346.788-.237.296.102 1.865.87 2.187 1.03.323.16.535.237.614.371.076.135.076.768-.188 1.51z" fill="#FAFAFA"/></svg>